<?xml version="1.0" encoding="UTF-8" standalone="no"?>
<!-- Created with Inkscape (http://www.inkscape.org/) -->

<svg
   xmlns:dc="http://purl.org/dc/elements/1.1/"
   xmlns:cc="http://creativecommons.org/ns#"
   xmlns:rdf="http://www.w3.org/1999/02/22-rdf-syntax-ns#"
   xmlns:svg="http://www.w3.org/2000/svg"
   xmlns="http://www.w3.org/2000/svg"
   xmlns:sodipodi="http://sodipodi.sourceforge.net/DTD/sodipodi-0.dtd"
   xmlns:inkscape="http://www.inkscape.org/namespaces/inkscape"
   width="256"
   height="256"
   viewBox="0 0 67.733331 67.733333"
   version="1.1"
   id="svg8"
   inkscape:version="0.92.2 (5c3e80d, 2017-08-06)"
   sodipodi:docname="wikitemplateslogo2.svg">
  <defs
     id="defs2" />
  <sodipodi:namedview
     id="base"
     pagecolor="#ffffff"
     bordercolor="#666666"
     borderopacity="1.0"
     inkscape:pageopacity="0.0"
     inkscape:pageshadow="2"
     inkscape:zoom="1.3854167"
     inkscape:cx="129.44361"
     inkscape:cy="192"
     inkscape:document-units="mm"
     inkscape:current-layer="layer1"
     showgrid="false"
     units="px"
     inkscape:window-width="1366"
     inkscape:window-height="739"
     inkscape:window-x="0"
     inkscape:window-y="0"
     inkscape:window-maximized="1" />
  <metadata
     id="metadata5">
    <rdf:RDF>
      <cc:Work
         rdf:about="">
        <dc:format>image/svg+xml</dc:format>
        <dc:type
           rdf:resource="http://purl.org/dc/dcmitype/StillImage" />
        <dc:title></dc:title>
      </cc:Work>
    </rdf:RDF>
  </metadata>
  <g
     inkscape:label="Layer 1"
     inkscape:groupmode="layer"
     id="layer1"
     transform="translate(0,-229.26666)">
    <path
       inkscape:connector-curvature="0"
       id="path898"
       style="font-style:normal;font-variant:normal;font-weight:normal;font-stretch:normal;font-size:25.39999962px;line-height:1.25;font-family:'Ubuntu Mono';-inkscape-font-specification:'Ubuntu Mono, Normal';font-variant-ligatures:normal;font-variant-caps:normal;font-variant-numeric:normal;font-feature-settings:normal;text-align:start;letter-spacing:0px;word-spacing:0px;writing-mode:lr-tb;text-anchor:start;fill:#990000;fill-opacity:1;stroke:none;stroke-width:0.26458332"
       d="m 4.1232653,262.32053 h 1.016 q 0.4318,0 0.762,-0.1778 0.3302,-0.2032 0.5334,-0.508 0.2286,-0.3302 0.3302,-0.7112 0.127,-0.4064 0.127,-0.8128 v -4.0894 q 0,-0.9398 0.1778,-1.651 0.2032,-0.7112 0.6604,-1.1938 0.4572,-0.508 1.2192,-0.762 0.7873999,-0.254 1.9557997,-0.254 h 2.0574 v 1.651 h -2.159 q -1.0667998,0 -1.5239997,0.4826 -0.4318,0.4826 -0.4318,1.7526 v 3.5052 q 0,1.7018 -0.508,2.5146 -0.508,0.7874 -1.1684,1.0668 0.6604,0.3048 1.1684,1.143 0.508,0.8382 0.508,2.4384 v 3.5052 q 0,1.27 0.4572,1.7526 0.4571999,0.4826 1.5239997,0.4826 h 2.1336 v 1.651 h -2.0574 q -1.1683998,0 -1.9557997,-0.254 -0.762,-0.254 -1.2192,-0.762 -0.4572,-0.4826 -0.6604,-1.1938 -0.1778,-0.7112 -0.1778,-1.651 v -4.0894 q 0,-0.381 -0.127,-0.762 -0.1016,-0.4064 -0.3302,-0.7112 -0.2032,-0.3302 -0.5334,-0.5334 -0.3048,-0.2032 -0.7366,-0.2032 h -1.0414 z" />
    <path
       inkscape:connector-curvature="0"
       id="path900"
       style="font-style:normal;font-variant:normal;font-weight:normal;font-stretch:normal;font-size:25.39999962px;line-height:1.25;font-family:'Ubuntu Mono';-inkscape-font-specification:'Ubuntu Mono, Normal';font-variant-ligatures:normal;font-variant-caps:normal;font-variant-numeric:normal;font-feature-settings:normal;text-align:start;letter-spacing:0px;word-spacing:0px;writing-mode:lr-tb;text-anchor:start;fill:#006699;fill-opacity:1;stroke:none;stroke-width:0.26458332"
       d="m 16.823265,262.32053 h 1.016 q 0.4318,0 0.762,-0.1778 0.3302,-0.2032 0.5334,-0.508 0.2286,-0.3302 0.3302,-0.7112 0.127,-0.4064 0.127,-0.8128 v -4.0894 q 0,-0.9398 0.1778,-1.651 0.2032,-0.7112 0.6604,-1.1938 0.4572,-0.508 1.2192,-0.762 0.7874,-0.254 1.9558,-0.254 h 2.0574 v 1.651 h -2.159 q -1.0668,0 -1.524,0.4826 -0.4318,0.4826 -0.4318,1.7526 v 3.5052 q 0,1.7018 -0.508,2.5146 -0.508,0.7874 -1.1684,1.0668 0.6604,0.3048 1.1684,1.143 0.508,0.8382 0.508,2.4384 v 3.5052 q 0,1.27 0.4572,1.7526 0.4572,0.4826 1.524,0.4826 h 2.1336 v 1.651 h -2.0574 q -1.1684,0 -1.9558,-0.254 -0.762,-0.254 -1.2192,-0.762 -0.4572,-0.4826 -0.6604,-1.1938 -0.1778,-0.7112 -0.1778,-1.651 v -4.0894 q 0,-0.381 -0.127,-0.762 -0.1016,-0.4064 -0.3302,-0.7112 -0.2032,-0.3302 -0.5334,-0.5334 -0.3048,-0.2032 -0.7366,-0.2032 h -1.0414 z" />
    <path
       inkscape:connector-curvature="0"
       id="path902"
       style="font-style:normal;font-variant:normal;font-weight:normal;font-stretch:normal;font-size:25.39999962px;line-height:1.25;font-family:'Ubuntu Mono';-inkscape-font-specification:'Ubuntu Mono, Normal';font-variant-ligatures:normal;font-variant-caps:normal;font-variant-numeric:normal;font-feature-settings:normal;text-align:start;letter-spacing:0px;word-spacing:0px;writing-mode:lr-tb;text-anchor:start;fill:#339966;fill-opacity:1;stroke:none;stroke-width:0.26458332"
       d="m 32.901465,252.16053 h 1.9558 v 21.9456 h -1.9558 z" />
    <path
       inkscape:connector-curvature="0"
       id="path904"
       style="font-style:normal;font-variant:normal;font-weight:normal;font-stretch:normal;font-size:25.39999962px;line-height:1.25;font-family:'Ubuntu Mono';-inkscape-font-specification:'Ubuntu Mono, Normal';font-variant-ligatures:normal;font-variant-caps:normal;font-variant-numeric:normal;font-feature-settings:normal;text-align:start;letter-spacing:0px;word-spacing:0px;writing-mode:lr-tb;text-anchor:start;fill:#006699;fill-opacity:1;stroke:none;stroke-width:0.26458332"
       d="m 50.910064,263.94613 h -1.016 q -0.4318,0 -0.762,0.2032 -0.3048,0.1778 -0.5334,0.508 -0.2032,0.3048 -0.3302,0.7112 -0.1016,0.381 -0.1016,0.7874 v 4.0894 q 0,0.9398 -0.2032,1.651 -0.1778,0.7112 -0.6604,1.1938 -0.4572,0.508 -1.2446,0.762 -0.762,0.254 -1.9304,0.254 h -2.0574 v -1.651 h 2.159 q 1.0668,0 1.4986,-0.4826 0.4572,-0.4826 0.4572,-1.7526 v -3.5052 q 0,-1.7018 0.508,-2.4892 0.508,-0.8128 1.1684,-1.0922 -0.6604,-0.3048 -1.1684,-1.143 -0.508,-0.8382 -0.508,-2.4384 v -3.5052 q 0,-1.27 -0.4572,-1.7526 -0.4572,-0.4826 -1.524,-0.4826 h -2.1336 v -1.651 h 2.0574 q 1.1684,0 1.9304,0.254 0.7874,0.254 1.2446,0.762 0.4826,0.4826 0.6604,1.1938 0.2032,0.7112 0.2032,1.651 v 4.0894 q 0,0.381 0.1016,0.7874 0.1016,0.381 0.3048,0.7112 0.2286,0.3048 0.5334,0.508 0.3302,0.2032 0.762,0.2032 h 1.0414 z" />
    <path
       inkscape:connector-curvature="0"
       id="path906"
       style="font-style:normal;font-variant:normal;font-weight:normal;font-stretch:normal;font-size:25.39999962px;line-height:1.25;font-family:'Ubuntu Mono';-inkscape-font-specification:'Ubuntu Mono, Normal';font-variant-ligatures:normal;font-variant-caps:normal;font-variant-numeric:normal;font-feature-settings:normal;text-align:start;letter-spacing:0px;word-spacing:0px;writing-mode:lr-tb;text-anchor:start;fill:#990000;fill-opacity:1;stroke:none;stroke-width:0.26458332"
       d="m 63.610064,263.94613 h -1.016 q -0.4318,0 -0.762,0.2032 -0.3048,0.1778 -0.5334,0.508 -0.2032,0.3048 -0.3302,0.7112 -0.1016,0.381 -0.1016,0.7874 v 4.0894 q 0,0.9398 -0.2032,1.651 -0.1778,0.7112 -0.6604,1.1938 -0.457199,0.508 -1.244599,0.762 -0.762,0.254 -1.9304,0.254 h -2.0574 v -1.651 h 2.159 q 1.0668,0 1.4986,-0.4826 0.4572,-0.4826 0.4572,-1.7526 v -3.5052 q 0,-1.7018 0.508,-2.4892 0.507999,-0.8128 1.168399,-1.0922 -0.6604,-0.3048 -1.168399,-1.143 -0.508,-0.8382 -0.508,-2.4384 v -3.5052 q 0,-1.27 -0.4572,-1.7526 -0.4572,-0.4826 -1.524,-0.4826 h -2.1336 v -1.651 h 2.0574 q 1.1684,0 1.9304,0.254 0.7874,0.254 1.244599,0.762 0.4826,0.4826 0.6604,1.1938 0.2032,0.7112 0.2032,1.651 v 4.0894 q 0,0.381 0.1016,0.7874 0.1016,0.381 0.3048,0.7112 0.2286,0.3048 0.5334,0.508 0.3302,0.2032 0.762,0.2032 h 1.0414 z" />
  </g>
</svg>
